<?xml version="1.0" standalone="no"?>
<!DOCTYPE svg PUBLIC "-//W3C//DTD SVG 20010904//EN"
 "http://www.w3.org/TR/2001/REC-SVG-20010904/DTD/svg10.dtd">
<svg version="1.0" xmlns="http://www.w3.org/2000/svg"
 width="3000.000000pt" height="3000.000000pt" viewBox="0 0 3000.000000 3000.000000"
 preserveAspectRatio="xMidYMid meet">
<metadata>
Created by potrace 1.14, written by Peter Selinger 2001-2017
</metadata>
<g transform="translate(0.000000,3000.000000) scale(0.100000,-0.100000)"
fill="#000000" stroke="none">
<path d="M6099 27460 c-159 -18 -356 -79 -489 -152 -383 -209 -604 -604 -650
-1159 -16 -192 -8 -2643 9 -2754 60 -396 181 -665 393 -872 241 -234 546 -344
953 -344 799 0 1288 467 1365 1306 14 149 13 2465 0 2645 -56 734 -434 1201
-1065 1316 -105 19 -403 27 -516 14z m362 -764 c218 -39 360 -181 421 -422
l23 -89 0 -1360 c0 -1528 4 -1434 -75 -1600 -59 -123 -149 -205 -277 -252 -84
-31 -269 -42 -380 -24 -160 28 -298 130 -367 273 -43 90 -63 167 -76 289 -13
129 -13 2527 0 2639 34 279 163 461 374 530 94 30 239 37 357 16z"/>
<path d="M1980 24820 l0 -2550 683 0 c392 0 729 4 792 10 194 19 402 73 540
143 384 192 632 558 700 1032 22 152 22 2552 0 2718 -88 671 -511 1093 -1183
1182 -91 12 -250 15 -823 15 l-709 0 0 -2550z m1472 1786 c240 -55 395 -211
472 -471 20 -69 21 -91 24 -1275 2 -786 -1 -1228 -8 -1271 -36 -236 -167 -421
-358 -506 -118 -52 -208 -63 -544 -63 l-308 0 0 1798 c0 989 3 1802 8 1806 4
5 151 6 327 3 237 -4 337 -10 387 -21z"/>
<path d="M7943 25418 c3 -1361 8 -1974 15 -2023 64 -404 182 -665 394 -872
238 -231 544 -343 943 -345 213 -1 337 17 515 74 452 144 730 496 833 1053
l22 120 3 1973 2 1972 -395 0 -395 0 -2 -1957 -3 -1958 -22 -80 c-36 -126 -86
-216 -160 -286 -109 -101 -253 -147 -428 -136 -264 18 -417 141 -497 399 l-23
73 -3 1973 -2 1972 -401 0 -400 0 4 -1952z"/>
<path d="M10920 24820 l0 -2550 658 0 c369 0 710 5 777 11 610 52 1041 367
1215 887 54 161 71 270 77 479 11 366 -40 634 -164 876 -95 184 -186 285 -392
434 -2 1 30 35 71 75 205 200 310 480 325 873 18 462 -99 821 -353 1085 -194
201 -442 318 -774 365 -84 12 -236 15 -772 15 l-668 0 0 -2550z m1383 1802
c221 -60 354 -190 414 -402 26 -95 26 -444 -1 -545 -60 -229 -203 -378 -424
-442 -46 -13 -116 -17 -354 -21 l-298 -4 0 715 c0 392 3 717 8 721 4 4 135 6
292 3 251 -3 294 -7 363 -25z m-73 -2132 c183 -17 299 -59 404 -142 147 -119
215 -268 238 -520 18 -207 -18 -393 -103 -534 -48 -79 -160 -182 -242 -222
-133 -64 -193 -72 -559 -72 l-328 0 0 743 c0 409 3 747 7 750 10 11 466 8 583
-3z"/>
<path d="M13900 24820 l0 -2550 1370 0 1370 0 0 405 0 405 -960 0 -960 0 0
2145 0 2145 -410 0 -410 0 0 -2550z"/>
<path d="M16890 24820 l0 -2550 1370 0 1370 0 0 390 0 390 -960 0 -960 0 0
695 0 695 845 0 845 0 0 385 0 385 -845 0 -845 0 0 695 0 695 960 0 960 0 0
385 0 385 -1370 0 -1370 0 0 -2550z"/>
<path d="M3115 21750 c-190 -21 -344 -63 -490 -136 -238 -117 -392 -277 -510
-527 -115 -244 -166 -602 -136 -949 41 -461 197 -731 561 -973 154 -103 368
-212 700 -360 232 -103 326 -161 439 -269 126 -122 206 -255 247 -411 27 -104
25 -332 -4 -439 -69 -250 -217 -402 -439 -452 -59 -13 -102 -15 -187 -11 -118
6 -190 23 -271 65 -157 79 -260 247 -294 479 -6 39 -11 205 -11 367 l0 296
-376 0 -376 0 5 -347 c3 -246 10 -379 21 -452 112 -726 517 -1114 1213 -1160
285 -19 561 25 796 128 155 68 357 242 459 396 163 248 241 546 240 920 -2
723 -281 1158 -945 1475 -67 32 -201 91 -297 130 -315 129 -482 233 -595 368
-111 134 -146 239 -146 447 0 259 49 406 176 530 99 97 246 145 442 145 187 0
295 -41 409 -154 141 -141 203 -338 204 -643 l0 -133 381 0 382 0 -7 183 c-21
535 -133 873 -376 1131 -157 167 -409 295 -670 341 -111 19 -427 28 -545 15z"/>
<path d="M12060 21749 c-460 -46 -798 -263 -981 -628 -97 -194 -148 -422 -156
-706 -18 -581 124 -929 491 -1199 153 -114 388 -238 762 -406 87 -39 188 -87
223 -106 146 -80 285 -206 369 -335 193 -293 167 -739 -55 -979 -115 -124
-263 -177 -468 -167 -295 14 -468 154 -547 442 -20 73 -22 108 -26 423 l-3
342 -376 0 -375 0 5 -362 c7 -437 22 -549 108 -795 150 -427 473 -700 920
-778 205 -36 472 -36 666 0 476 89 805 379 951 836 59 186 82 351 82 589 -1
444 -107 769 -342 1041 -177 206 -439 369 -888 555 -313 129 -443 204 -565
329 -158 161 -212 334 -185 603 30 315 176 498 436 547 100 20 274 19 348 0
295 -77 446 -348 446 -797 l0 -118 376 0 377 0 -6 223 c-4 165 -10 254 -27
346 -102 580 -404 934 -905 1061 -183 47 -432 61 -655 39z"/>
<path d="M4950 19110 l0 -2550 1370 0 1370 0 0 405 0 405 -960 0 -960 0 0
2145 0 2145 -410 0 -410 0 0 -2550z"/>
<path d="M8661 21598 c-5 -35 -184 -1170 -396 -2523 -212 -1353 -388 -2472
-391 -2487 l-6 -28 389 0 389 0 74 500 74 500 513 0 513 0 5 -22 c2 -13 34
-223 70 -468 35 -245 67 -460 70 -477 l6 -33 384 0 c301 0 385 3 385 13 1 6
-178 1154 -397 2550 l-398 2537 -636 0 -637 0 -11 -62z m849 -2016 c106 -706
190 -1286 187 -1288 -2 -2 -179 -3 -393 -2 l-390 3 195 1304 c114 760 198
1295 203 1285 4 -11 93 -597 198 -1302z"/>
<path d="M13900 19110 l0 -2550 410 0 410 0 0 1100 0 1100 560 0 560 0 0
-1100 0 -1100 410 0 410 0 0 2550 0 2550 -410 0 -410 0 0 -1065 0 -1065 -560
0 -560 0 0 1065 0 1065 -410 0 -410 0 0 -2550z"/>
<path d="M4960 13405 l0 -2556 768 4 767 3 120 27 c168 37 263 70 385 133 127
66 200 119 302 220 174 172 302 416 358 686 39 190 41 276 37 1553 -4 1073 -6
1241 -20 1320 -117 658 -508 1039 -1170 1141 -83 13 -233 17 -824 21 l-723 5
0 -2557z m1525 1766 c221 -73 349 -210 417 -446 l23 -80 0 -1245 0 -1245 -23
-80 c-72 -249 -238 -405 -485 -456 -78 -16 -136 -19 -394 -19 l-303 0 0 1801
0 1800 348 -3 c331 -4 350 -5 417 -27z"/>
<path d="M7947 15953 c-4 -3 -7 -1153 -7 -2555 l0 -2548 1370 0 1370 0 0 390
0 390 -960 0 -960 0 0 695 0 695 845 0 845 0 0 385 0 385 -845 0 -845 0 0 695
0 695 960 0 960 0 0 390 0 390 -1363 0 c-750 0 -1367 -3 -1370 -7z"/>
<path d="M10930 15941 c0 -16 680 -4959 696 -5053 l6 -38 658 0 658 0 6 28 c3
15 39 272 80 572 42 300 197 1426 346 2502 148 1076 270 1968 270 1982 l0 26
-389 0 c-215 0 -392 -4 -395 -9 -3 -4 -133 -918 -288 -2029 -155 -1112 -285
-2018 -289 -2014 -3 4 -131 914 -283 2022 -153 1108 -280 2018 -282 2022 -3 5
-183 8 -400 8 -378 0 -394 -1 -394 -19z"/>
<path d="M23055 12462 c-11 -7 -3945 -10597 -3953 -10640 -3 -14 1 -28 9 -33
8 -5 398 -9 875 -9 678 0 864 3 871 13 12 14 3944 10600 3951 10636 3 13 -1
27 -9 32 -17 10 -1729 12 -1744 1z m-44 -169 c-12 -20 -14 -14 -5 12 4 9 9 14
11 11 3 -2 0 -13 -6 -23z"/>
<path d="M26335 12462 c-6 -4 -881 -2351 -1944 -5217 -1064 -2866 -1953 -5261
-1977 -5323 -37 -99 -40 -114 -27 -127 12 -13 129 -15 877 -15 679 0 866 3
873 13 12 14 3944 10600 3951 10636 3 13 -1 27 -9 32 -17 10 -1729 12 -1744 1z
m-44 -169 c-12 -20 -14 -14 -5 12 4 9 9 14 11 11 3 -2 0 -13 -6 -23z"/>
<path d="M1860 9830 l0 -210 1483 2 1482 3 0 205 0 205 -1482 3 -1483 2 0
-210z"/>
<path d="M26650 2885 l0 -955 955 0 955 0 0 955 0 955 -955 0 -955 0 0 -955z"/>
</g>
</svg>
